# xmcd
#
# Track frame offsets:
# 150
# 22558
# 38034
# 54760
# 77473
# 94810
# 108840
# 134639
# 147782
# 169249
# 188561
# 207789
# 224789
# 244195
# 255236
#
# Disc length: 3692 seconds
#
# Revision: 1
# Processed by: cddbd v1.5.1PL0 Copyright (c) Steve Scherf et al.
# Submitted via: CedeCatalogueitor 2.6.0.6 http://personales.ya.com/cdcatalogueitor
#
DISCID=bf0e6a0f
DTITLE=Varios - Las Mejores Canciones De Anuncios De Tv Vol.1
DYEAR=1900
DGENRE=
TTITLE0=KIA-CERATTO Shut Up
TTITLE1=PEUGEOT 206 Boom Shack Attack
TTITLE2=SAAB Eternity (Is Over Me)
TTITLE3=FORTUNA Private Sound
TTITLE4=MITSUBISHI The Switch
TTITLE5=CHEVROLET Good Thing
TTITLE6=CITROËN The Power
TTITLE7=BREIL Tangled Up In Me
TTITLE8=TELEFONICA MOVISTAR The Passenger
TTITLE9=TNT (TELE 5) The Bad Touch
TTITLE10=VODAFONE Can You Dig It?
TTITLE11=PEUGEOT 307 Testify
TTITLE12=TOYOTA STEVIE ZEE How Verso Are You
TTITLE13=CITROËN Baby You Can Drive My Car
TTITLE14=AQUARIUS Aquarius
EXTD=
EXTT0=
EXTT1=
EXTT2=
EXTT3=
EXTT4=
EXTT5=
EXTT6=
EXTT7=
EXTT8=
EXTT9=
EXTT10=
EXTT11=
EXTT12=
EXTT13=
EXTT14=
PLAYORDER=
